<?xml version="1.0" encoding="iso-8859-1"?>
<!-- Generator: Adobe Illustrator 19.0.0, SVG Export Plug-In . SVG Version: 6.00 Build 0)  -->
<svg version="1.1" id="Capa_1" xmlns="http://www.w3.org/2000/svg" xmlns:xlink="http://www.w3.org/1999/xlink" x="0px" y="0px"
	 viewBox="0 0 512 512" style="enable-background:new 0 0 512 512;" xml:space="preserve">
<g>
	<path style="fill:#CBB292;" d="M463.448,158.897H419.31V97.103c0.003-9.366-3.717-18.349-10.339-24.971
		C402.349,65.51,393.366,61.79,384,61.793h-44.138c-0.028-9.739-7.916-17.627-17.655-17.655h-26.483V17.655
		C295.696,7.916,287.808,0.028,278.069,0H172.138c-9.739,0.028-17.627,7.916-17.655,17.655v26.483H128
		c-9.739,0.028-17.627,7.916-17.655,17.655H66.207c-9.366-0.003-18.349,3.717-24.971,10.339S30.894,87.738,30.897,97.103v344.276
		c-0.003,9.366,3.717,18.348,10.339,24.971c6.623,6.623,15.605,10.342,24.971,10.339h114.759v17.655
		c0.029,9.739,7.916,17.627,17.655,17.655h264.828c9.739-0.029,17.627-7.916,17.655-17.655V176.552
		C481.075,166.813,473.187,158.925,463.448,158.897z"/>
	<path style="fill:#95A5A5;" d="M128,44.138h194.207c9.751,0,17.655,7.904,17.655,17.655v35.31c0,9.751-7.904,17.655-17.655,17.655
		H128c-9.751,0-17.655-7.904-17.655-17.655v-35.31C110.345,52.042,118.249,44.138,128,44.138z"/>
	<path style="fill:#7F8C8D;" d="M295.724,17.655v26.483H154.483V17.655C154.511,7.916,162.399,0.028,172.138,0h105.931
		C287.808,0.028,295.696,7.916,295.724,17.655z"/>
	<path style="fill:#E6E7E8;" d="M198.621,158.897h264.828c9.751,0,17.655,7.904,17.655,17.655v317.793
		c0,9.751-7.905,17.655-17.655,17.655H198.621c-9.751,0-17.655-7.905-17.655-17.655V176.552
		C180.966,166.801,188.87,158.897,198.621,158.897z"/>
	<g>
		<path style="fill:#7F8C8D;" d="M410.483,273.655H251.586c-4.875,0-8.828-3.952-8.828-8.828s3.952-8.828,8.828-8.828h158.897
			c4.875,0,8.828,3.952,8.828,8.828S415.358,273.655,410.483,273.655z"/>
		<path style="fill:#7F8C8D;" d="M410.483,317.793H251.586c-4.875,0-8.828-3.952-8.828-8.828s3.952-8.828,8.828-8.828h158.897
			c4.875,0,8.828,3.952,8.828,8.828S415.358,317.793,410.483,317.793z"/>
		<path style="fill:#7F8C8D;" d="M410.483,361.931H251.586c-4.875,0-8.828-3.952-8.828-8.828s3.952-8.828,8.828-8.828h158.897
			c4.875,0,8.828,3.952,8.828,8.828S415.358,361.931,410.483,361.931z"/>
		<path style="fill:#7F8C8D;" d="M410.483,406.069H251.586c-4.875,0-8.828-3.952-8.828-8.828c0-4.875,3.952-8.828,8.828-8.828
			h158.897c4.875,0,8.828,3.952,8.828,8.828C419.31,402.117,415.358,406.069,410.483,406.069z"/>
	</g>
</g>
<g>
</g>
<g>
</g>
<g>
</g>
<g>
</g>
<g>
</g>
<g>
</g>
<g>
</g>
<g>
</g>
<g>
</g>
<g>
</g>
<g>
</g>
<g>
</g>
<g>
</g>
<g>
</g>
<g>
</g>
</svg>
